<?xml version="1.0" encoding="utf-8"?>
<!-- Generator: Adobe Illustrator 16.0.0, SVG Export Plug-In . SVG Version: 6.00 Build 0)  -->
<!DOCTYPE svg PUBLIC "-//W3C//DTD SVG 1.1//EN" "http://www.w3.org/Graphics/SVG/1.1/DTD/svg11.dtd">
<svg version="1.1" id="Layer_1" xmlns="http://www.w3.org/2000/svg" xmlns:xlink="http://www.w3.org/1999/xlink" x="0px" y="0px"
	 width="231px" height="280px" viewBox="95.5 126.5 231 280" enable-background="new 95.5 126.5 231 280" xml:space="preserve">
<g enable-background="new    ">
	<path fill="#FFFFFF" d="M212.569,282.096c25.163,1.809,47.038-18.915,58.222-39.638c6.25-11.513,10.691-23.684,13.651-36.348
		c1.48-6.25,2.631-12.664,3.783-18.585c0.822-4.441,3.783-11.184,9.21-7.072c4.44,3.783,1.151,11.513,0,15.954
		c-1.48,7.072-3.783,14.144-5.921,20.723c-4.112,11.842-9.704,23.684-16.612,34.045c-8.881,12.665-21.875,24.835-36.677,30.756
		c9.21,2.303,17.434,7.401,24.013,14.473c19.572,21.546,24.835,51.809,37.006,77.794c2.631,5.263,5.263,10.69,9.703,14.802
		c1.81,1.809,4.441,3.29,7.072,4.441c1.81,0.822,5.592,0.329,6.25,2.631c1.48,6.25-12.993,1.809-14.803,0.823
		c-5.92-2.961-10.361-7.73-13.65-12.994c-15.954-23.026-19.243-51.808-33.059-75.656c-5.921-10.691-14.802-20.065-27.795-21.546
		c-4.112-0.329-15.624-1.151-21.052,2.632c0,4.44-0.329,9.21-0.329,13.651l-2.632,65.294c0,4.77-0.329,9.704-0.329,14.473
		c-0.329,5.263,0.822,12.665-1.48,17.105c-1.48,3.289-4.112-0.328-4.44-2.302c-0.329-1.481-0.329-3.29-0.329-4.771
		c0-2.631,0-4.77-0.329-7.072v-21.052c-0.329-15.13-0.329-30.098-0.329-45.229V204.959c0-6.25-0.329-12.993-0.329-19.243
		c-0.329-3.29-0.329-7.072,0.822-10.362c1.48-2.303,4.441-3.29,6.25-0.822c2.302,2.96,2.96,7.401,3.289,11.513
		c0.823,5.921,1.151,12.171,1.151,18.585c0.822,14.803,0.822,29.276,0.329,44.078l-0.822,33.388H212.569z"/>
</g>
<g enable-background="new    ">
	<path fill="#FFFFFF" d="M239.377,229.629c-3.29,0-5.592-3.289-4.112-6.25c1.48-2.303,4.44-3.783,6.743-4.77
		c6.25-4.112,11.842-9.21,15.131-16.282c12.664-25.986-10.033-53.289-34.045-61.841c-25.493-8.552-58.88-4.44-78.946,14.473
		c-20.723,19.243-23.025,51.808-4.441,73.354c8.882,9.704,21.053,16.118,34.045,18.749c7.073,1.151,14.145,1.48,21.053,1.151h4.769
		c-0.329-12.993-0.822-25.493-0.329-38.979c0-7.072,0.329-14.145,1.151-21.545c0.329-4.441,0.329-10.691,3.783-14.474
		c2.303-2.303,5.263-1.151,6.25,1.48c1.151,2.96,1.151,6.25,0.822,9.704c-0.329,7.73-0.329,15.625-0.329,23.354v39.637
		c0,26.644,0.329,53.288,0,79.604c-0.329,7.072-0.329,14.145-0.329,20.723c-0.329,2.96,0,5.921-0.329,8.881
		c-0.329,1.809-2.631,6.25-4.77,2.631c-1.151-1.151-0.822-3.783-1.151-5.263l-1.151-30.427c-1.151-22.532-2.302-45.887-2.96-68.913
		c-2.96-0.822-5.921-1.151-6.744-1.151c-8.223-0.329-16.282,1.151-23.025,6.25c-10.691,8.552-15.954,23.025-20.724,35.196
		c-5.262,13.651-9.209,27.795-15.953,40.789c-5.592,10.362-13.651,22.533-26.644,23.026c-1.81,0-7.072-0.822-4.44-4.112
		c1.15-1.48,4.111-1.48,5.921-2.302c5.592-2.303,9.21-7.73,12.171-12.993c13.322-25.164,16.61-55.262,36.347-77.137
		c4.112-4.111,8.552-7.73,13.322-10.361c-10.362-1.48-20.724-4.441-30.098-11.184c-23.026-15.954-31.578-47.367-18.585-72.695
		c12.665-25.164,41.939-34.703,68.584-35.854c27.795-1.151,57.399,7.401,71.544,33.058c6.744,11.842,8.553,26.315,3.783,39.308
		c-2.303,6.25-6.25,12.171-11.513,16.612C250.067,224.695,244.804,229.136,239.377,229.629z"/>
</g>
</svg>
